<svg width="358" height="318" viewBox="0 0 358 318" fill="none" xmlns="http://www.w3.org/2000/svg">
<path d="M2.71212 275.343L0 287.572V318H358V0L355.288 9.71225C352.576 19.4245 347.151 38.849 341.727 51.0283C336.303 63.2077 330.879 68.1418 325.455 63.9432C320.03 59.7445 314.606 46.4131 309.182 53.4604C303.758 60.5078 298.333 87.934 292.909 101.561C287.485 115.188 282.061 115.015 276.636 102.561C271.212 90.1068 265.788 65.3711 260.364 52.0522C254.939 38.7332 249.515 36.8311 244.091 40.7513C238.667 44.6714 233.242 54.4139 227.818 62.2511C222.394 70.0882 216.97 76.0201 211.545 75.825C206.121 75.6299 200.697 69.3078 195.273 85.7046C189.848 102.101 184.424 141.217 179 152.04C173.576 162.863 168.152 145.393 162.727 134.663C157.303 123.933 151.879 119.944 146.455 119.747C141.03 119.551 135.606 123.148 130.182 119.401C124.758 115.654 119.333 104.564 113.909 118.14C108.485 131.717 103.061 169.959 97.6364 177.554C92.2121 185.149 86.7879 162.096 81.3636 163.693C75.9394 165.29 70.5152 191.537 65.0909 191.549C59.6667 191.561 54.2424 165.339 48.8182 172.349C43.3939 179.36 37.9697 219.603 32.5455 232.117C27.1212 244.631 21.697 229.415 16.2727 234.035C10.8485 238.656 5.42424 263.114 2.71212 275.343Z" fill="url(#paint0_linear_898_10526)"/>
<g opacity="0.2" filter="url(#filter0_f_898_10526)">
<path d="M0 288L2.71212 275.753C5.42424 263.506 10.8485 239.011 16.2727 234.384C21.697 229.756 27.1212 244.995 32.5455 232.462C37.9697 219.93 43.3939 179.627 48.8182 172.606C54.2424 165.585 59.6667 191.846 65.0909 191.834C70.5151 191.821 75.9394 165.535 81.3636 163.936C86.7879 162.337 92.2121 185.424 97.6364 177.818C103.061 170.212 108.485 131.912 113.909 118.316C119.333 104.72 124.758 115.826 130.182 119.578C135.606 123.331 141.03 119.729 146.455 119.925C151.879 120.122 157.303 124.118 162.727 134.863C168.152 145.609 173.576 163.105 179 152.266C184.424 141.427 189.848 102.253 195.273 85.832C200.697 69.4109 206.121 75.7424 211.545 75.9378C216.97 76.1332 222.394 70.1925 227.818 62.3436C233.242 54.4948 238.667 44.7379 244.091 40.8119C249.515 36.8859 254.939 38.7909 260.364 52.1296C265.788 65.4683 271.212 90.2409 276.636 102.714C282.061 115.186 287.485 115.359 292.909 101.712C298.333 88.0648 303.758 60.5978 309.182 53.5399C314.606 46.4821 320.03 59.8334 325.455 64.0383C330.879 68.2432 336.303 63.3017 341.727 51.1042C347.151 38.9068 352.576 19.4534 355.288 9.7267L358 0" stroke="#18A0FB" stroke-width="3"/>
</g>
<g filter="url(#filter1_ii_898_10526)">
<path d="M0 288L2.71212 275.753C5.42424 263.506 10.8485 239.011 16.2727 234.384C21.697 229.756 27.1212 244.995 32.5455 232.462C37.9697 219.93 43.3939 179.627 48.8182 172.606C54.2424 165.585 59.6667 191.846 65.0909 191.834C70.5151 191.821 75.9394 165.535 81.3636 163.936C86.7879 162.337 92.2121 185.424 97.6364 177.818C103.061 170.212 108.485 131.912 113.909 118.316C119.333 104.72 124.758 115.826 130.182 119.578C135.606 123.331 141.03 119.729 146.455 119.925C151.879 120.122 157.303 124.118 162.727 134.863C168.152 145.609 173.576 163.105 179 152.266C184.424 141.427 189.848 102.253 195.273 85.832C200.697 69.4109 206.121 75.7424 211.545 75.9378C216.97 76.1332 222.394 70.1925 227.818 62.3436C233.242 54.4948 238.667 44.7379 244.091 40.8119C249.515 36.8859 254.939 38.7909 260.364 52.1296C265.788 65.4683 271.212 90.2409 276.636 102.714C282.061 115.186 287.485 115.359 292.909 101.712C298.333 88.0648 303.758 60.5978 309.182 53.5399C314.606 46.4821 320.03 59.8334 325.455 64.0383C330.879 68.2432 336.303 63.3017 341.727 51.1042C347.151 38.9068 352.576 19.4534 355.288 9.7267L358 0" stroke="#18A0FB" stroke-width="3"/>
</g>
<rect width="358" height="317" fill="url(#paint1_linear_898_10526)"/>
<defs>
<filter id="filter0_f_898_10526" x="-9.46448" y="-8.40283" width="376.909" height="304.727" filterUnits="userSpaceOnUse" color-interpolation-filters="sRGB">
<feFlood flood-opacity="0" result="BackgroundImageFix"/>
<feBlend mode="normal" in="SourceGraphic" in2="BackgroundImageFix" result="shape"/>
<feGaussianBlur stdDeviation="4" result="effect1_foregroundBlur_898_10526"/>
</filter>
<filter id="filter1_ii_898_10526" x="-1.46448" y="-0.402832" width="360.909" height="288.727" filterUnits="userSpaceOnUse" color-interpolation-filters="sRGB">
<feFlood flood-opacity="0" result="BackgroundImageFix"/>
<feBlend mode="normal" in="SourceGraphic" in2="BackgroundImageFix" result="shape"/>
<feColorMatrix in="SourceAlpha" type="matrix" values="0 0 0 0 0 0 0 0 0 0 0 0 0 0 0 0 0 0 127 0" result="hardAlpha"/>
<feOffset dx="-0.5" dy="-0.5"/>
<feComposite in2="hardAlpha" operator="arithmetic" k2="-1" k3="1"/>
<feColorMatrix type="matrix" values="0 0 0 0 0 0 0 0 0 0 0 0 0 0 0 0 0 0 0.2 0"/>
<feBlend mode="normal" in2="shape" result="effect1_innerShadow_898_10526"/>
<feColorMatrix in="SourceAlpha" type="matrix" values="0 0 0 0 0 0 0 0 0 0 0 0 0 0 0 0 0 0 127 0" result="hardAlpha"/>
<feOffset dx="0.5" dy="0.5"/>
<feComposite in2="hardAlpha" operator="arithmetic" k2="-1" k3="1"/>
<feColorMatrix type="matrix" values="0 0 0 0 1 0 0 0 0 1 0 0 0 0 1 0 0 0 0.25 0"/>
<feBlend mode="normal" in2="effect1_innerShadow_898_10526" result="effect2_innerShadow_898_10526"/>
</filter>
<linearGradient id="paint0_linear_898_10526" x1="179" y1="0" x2="179" y2="353.797" gradientUnits="userSpaceOnUse">
<stop stop-color="#0065FF" stop-opacity="0.2"/>
<stop offset="1" stop-color="#0065FF" stop-opacity="0"/>
</linearGradient>
<linearGradient id="paint1_linear_898_10526" x1="179" y1="0" x2="179" y2="317" gradientUnits="userSpaceOnUse">
<stop offset="0.43675" stop-color="white" stop-opacity="0"/>
<stop offset="0.896662" stop-color="white"/>
</linearGradient>
</defs>
</svg>
