<svg width="588" height="318" viewBox="0 0 588 318" fill="none" xmlns="http://www.w3.org/2000/svg">
<path d="M4.45455 275.343L0 287.572V318H588V0L583.545 9.71225L583.545 9.71279C579.091 19.4252 570.182 38.8492 561.273 51.0283C552.364 63.2077 543.455 68.1418 534.545 63.9432C525.636 59.7445 516.727 46.4131 507.818 53.4604C498.909 60.5078 490 87.934 481.091 101.561C472.182 115.188 463.273 115.015 454.364 102.561C445.455 90.1068 436.545 65.3711 427.636 52.0522C418.727 38.7332 409.818 36.8311 400.909 40.7513C392 44.6714 383.091 54.4139 374.182 62.2511C365.273 70.0882 356.364 76.0201 347.455 75.825C338.545 75.6299 329.636 69.3078 320.727 85.7046C311.818 102.101 302.909 141.217 294 152.04C285.091 162.863 276.182 145.393 267.273 134.663C258.364 123.933 249.455 119.944 240.545 119.747C231.636 119.551 222.727 123.148 213.818 119.401C204.909 115.654 196 104.564 187.091 118.14C178.182 131.717 169.273 169.959 160.364 177.554C151.455 185.149 142.545 162.096 133.636 163.693C124.727 165.29 115.818 191.537 106.909 191.549C98 191.561 89.0909 165.339 80.1818 172.349C71.2727 179.36 62.3636 219.603 53.4545 232.117C44.5455 244.631 35.6364 229.415 26.7273 234.035C17.8182 238.656 8.90909 263.114 4.45455 275.343Z" fill="url(#paint0_linear_898_10178)"/>
<g opacity="0.2" filter="url(#filter0_f_898_10178)">
<path d="M0 288L4.45455 275.753C8.90909 263.506 17.8182 239.011 26.7273 234.384C35.6364 229.756 44.5455 244.995 53.4545 232.462C62.3636 219.93 71.2727 179.627 80.1818 172.606C89.0909 165.585 98 191.846 106.909 191.834C115.818 191.821 124.727 165.535 133.636 163.936C142.545 162.337 151.455 185.424 160.364 177.818C169.273 170.212 178.182 131.912 187.091 118.316C196 104.72 204.909 115.826 213.818 119.578C222.727 123.331 231.636 119.729 240.545 119.925C249.455 120.122 258.364 124.118 267.273 134.863C276.182 145.609 285.091 163.105 294 152.266C302.909 141.427 311.818 102.253 320.727 85.832C329.636 69.4109 338.545 75.7424 347.455 75.9378C356.364 76.1332 365.273 70.1925 374.182 62.3436C383.091 54.4948 392 44.7379 400.909 40.8119C409.818 36.8859 418.727 38.7909 427.636 52.1296C436.545 65.4683 445.455 90.2409 454.364 102.714C463.273 115.186 472.182 115.359 481.091 101.712C490 88.0648 498.909 60.5978 507.818 53.5399C516.727 46.4821 525.636 59.8334 534.545 64.0383C543.455 68.2432 552.364 63.3017 561.273 51.1042C570.182 38.9068 579.091 19.4534 583.545 9.7267L588 0" stroke="#18A0FB" stroke-width="3"/>
</g>
<g filter="url(#filter1_ii_898_10178)">
<path d="M0 288L4.45455 275.753C8.90909 263.506 17.8182 239.011 26.7273 234.384C35.6364 229.756 44.5455 244.995 53.4545 232.462C62.3636 219.93 71.2727 179.627 80.1818 172.606C89.0909 165.585 98 191.846 106.909 191.834C115.818 191.821 124.727 165.535 133.636 163.936C142.545 162.337 151.455 185.424 160.364 177.818C169.273 170.212 178.182 131.912 187.091 118.316C196 104.72 204.909 115.826 213.818 119.578C222.727 123.331 231.636 119.729 240.545 119.925C249.455 120.122 258.364 124.118 267.273 134.863C276.182 145.609 285.091 163.105 294 152.266C302.909 141.427 311.818 102.253 320.727 85.832C329.636 69.4109 338.545 75.7424 347.455 75.9378C356.364 76.1332 365.273 70.1925 374.182 62.3436C383.091 54.4948 392 44.7379 400.909 40.8119C409.818 36.8859 418.727 38.7909 427.636 52.1296C436.545 65.4683 445.455 90.2409 454.364 102.714C463.273 115.186 472.182 115.359 481.091 101.712C490 88.0648 498.909 60.5978 507.818 53.5399C516.727 46.4821 525.636 59.8334 534.545 64.0383C543.455 68.2432 552.364 63.3017 561.273 51.1042C570.182 38.9068 579.091 19.4534 583.545 9.7267L588 0" stroke="#18A0FB" stroke-width="3"/>
</g>
<rect width="588" height="317" fill="url(#paint1_linear_898_10178)"/>
<defs>
<filter id="filter0_f_898_10178" x="-9.40967" y="-8.62463" width="606.773" height="305.137" filterUnits="userSpaceOnUse" color-interpolation-filters="sRGB">
<feFlood flood-opacity="0" result="BackgroundImageFix"/>
<feBlend mode="normal" in="SourceGraphic" in2="BackgroundImageFix" result="shape"/>
<feGaussianBlur stdDeviation="4" result="effect1_foregroundBlur_898_10178"/>
</filter>
<filter id="filter1_ii_898_10178" x="-1.40967" y="-0.624634" width="590.773" height="289.137" filterUnits="userSpaceOnUse" color-interpolation-filters="sRGB">
<feFlood flood-opacity="0" result="BackgroundImageFix"/>
<feBlend mode="normal" in="SourceGraphic" in2="BackgroundImageFix" result="shape"/>
<feColorMatrix in="SourceAlpha" type="matrix" values="0 0 0 0 0 0 0 0 0 0 0 0 0 0 0 0 0 0 127 0" result="hardAlpha"/>
<feOffset dx="-0.5" dy="-0.5"/>
<feComposite in2="hardAlpha" operator="arithmetic" k2="-1" k3="1"/>
<feColorMatrix type="matrix" values="0 0 0 0 0 0 0 0 0 0 0 0 0 0 0 0 0 0 0.2 0"/>
<feBlend mode="normal" in2="shape" result="effect1_innerShadow_898_10178"/>
<feColorMatrix in="SourceAlpha" type="matrix" values="0 0 0 0 0 0 0 0 0 0 0 0 0 0 0 0 0 0 127 0" result="hardAlpha"/>
<feOffset dx="0.5" dy="0.5"/>
<feComposite in2="hardAlpha" operator="arithmetic" k2="-1" k3="1"/>
<feColorMatrix type="matrix" values="0 0 0 0 1 0 0 0 0 1 0 0 0 0 1 0 0 0 0.25 0"/>
<feBlend mode="normal" in2="effect1_innerShadow_898_10178" result="effect2_innerShadow_898_10178"/>
</filter>
<linearGradient id="paint0_linear_898_10178" x1="294" y1="0" x2="294" y2="353.797" gradientUnits="userSpaceOnUse">
<stop stop-color="#0065FF" stop-opacity="0.2"/>
<stop offset="1" stop-color="#0065FF" stop-opacity="0"/>
</linearGradient>
<linearGradient id="paint1_linear_898_10178" x1="294" y1="0" x2="294" y2="317" gradientUnits="userSpaceOnUse">
<stop offset="0.43675" stop-color="white" stop-opacity="0"/>
<stop offset="0.896662" stop-color="white"/>
</linearGradient>
</defs>
</svg>
